<?xml version="1.0" standalone="no"?>
<!DOCTYPE svg PUBLIC "-//W3C//DTD SVG 20010904//EN"
 "http://www.w3.org/TR/2001/REC-SVG-20010904/DTD/svg10.dtd">
<svg version="1.0" xmlns="http://www.w3.org/2000/svg"
 width="200.000000pt" height="200.000000pt" viewBox="0 0 200.000000 200.000000"
 preserveAspectRatio="xMidYMid meet">
<metadata>
Created by potrace 1.11, written by Peter Selinger 2001-2013
</metadata>
<g transform="translate(0.000000,200.000000) scale(0.100000,-0.100000)"
fill="#000000" stroke="none">
<path d="M402 1868 c-16 -16 -17 -1292 -1 -1367 12 -58 56 -123 102 -151 37
-23 503 -230 517 -230 14 0 480 207 517 230 46 28 90 93 102 151 16 75 15
1351 -1 1367 -17 17 -1219 17 -1236 0z m650 -155 c20 -44 20 -56 12 -242 -5
-108 -8 -230 -7 -272 2 -109 39 -243 98 -360 25 -48 27 -50 58 -44 45 10 80
47 80 84 0 38 -37 81 -71 81 -22 0 -24 3 -18 34 4 19 15 106 25 193 22 178 42
243 102 327 37 51 120 126 140 126 5 0 9 -250 9 -555 l0 -555 -130 0 -130 0
-5 -27 c-13 -63 -67 -151 -130 -212 l-65 -63 -65 63 c-63 61 -117 149 -130
211 l-5 28 -130 0 -130 0 0 555 c0 327 4 555 9 555 23 0 112 -84 150 -140 53
-81 76 -162 96 -337 8 -78 18 -155 21 -172 6 -27 4 -31 -14 -31 -12 0 -33 -11
-48 -23 -53 -46 -23 -126 53 -142 31 -6 33 -4 58 44 59 117 96 251 98 360 1
42 -2 164 -7 272 -8 186 -8 197 12 242 12 26 26 47 32 47 6 0 20 -21 32 -47z"/>
<path d="M630 1200 l0 -290 25 0 c18 0 26 7 31 25 3 14 22 38 41 55 l34 30
-11 93 c-21 180 -28 223 -46 267 -20 52 -56 110 -66 110 -5 0 -8 -130 -8 -290z"/>
<path d="M1374 1457 c-48 -75 -58 -116 -84 -344 l-11 -93 34 -30 c19 -17 38
-41 41 -55 5 -18 13 -25 31 -25 l25 0 0 290 c0 160 -3 290 -7 290 -5 0 -17
-15 -29 -33z"/>
<path d="M995 913 c-10 -27 -29 -69 -42 -95 -13 -27 -19 -48 -15 -48 5 0 26
-11 46 -25 l36 -24 36 24 c20 14 41 25 46 25 4 0 -2 21 -15 48 -13 26 -32 68
-42 95 -10 26 -21 47 -25 47 -4 0 -15 -21 -25 -47z"/>
<path d="M637 844 c-4 -4 -7 -61 -7 -126 l0 -118 89 0 88 0 6 48 c3 26 7 54 9
62 2 8 -11 18 -34 24 -41 12 -83 48 -101 86 -12 25 -37 37 -50 24z"/>
<path d="M1362 838 c-6 -6 -12 -17 -12 -23 0 -19 -54 -64 -95 -79 -24 -8 -39
-19 -37 -27 2 -7 6 -35 9 -61 l6 -48 89 0 89 0 -3 122 c-2 100 -6 123 -18 126
-9 1 -21 -3 -28 -10z"/>
<path d="M886 678 c-3 -13 -6 -36 -6 -51 0 -28 1 -28 53 -25 46 3 52 5 49 23
-9 59 -83 100 -96 53z"/>
<path d="M1087 682 c-20 -21 -38 -68 -30 -76 4 -3 28 -6 55 -6 46 0 48 1 48
28 0 50 -11 72 -35 72 -12 0 -29 -8 -38 -18z"/>
<path d="M896 503 c13 -51 66 -133 86 -133 4 0 8 36 8 80 l0 80 -50 0 c-50 0
-50 0 -44 -27z"/>
<path d="M1050 450 c0 -44 4 -80 8 -80 20 0 73 82 86 133 6 27 6 27 -44 27
l-50 0 0 -80z"/>
</g>
</svg>
