<?xml version="1.0" standalone="no"?>
<!DOCTYPE svg PUBLIC "-//W3C//DTD SVG 20010904//EN"
 "http://www.w3.org/TR/2001/REC-SVG-20010904/DTD/svg10.dtd">
<svg version="1.0" xmlns="http://www.w3.org/2000/svg"
 width="87.000000pt" height="87.000000pt" viewBox="0 0 87.000000 87.000000"
 preserveAspectRatio="xMidYMid meet">
<metadata>
Created by potrace 1.11, written by Peter Selinger 2001-2013
</metadata>
<g transform="translate(0.000000,87.000000) scale(0.100000,-0.100000)"
fill="#000000" stroke="none">
<path d="M371 710 c-13 -6 -33 -8 -45 -5 -15 5 -17 4 -7 -3 11 -8 9 -11 -8
-17 -11 -3 -21 -11 -21 -16 0 -5 -11 -13 -23 -18 -20 -8 -23 -15 -19 -42 4
-25 6 -29 14 -15 5 9 6 21 2 28 -5 7 -2 9 8 5 9 -3 20 -1 26 5 17 17 27 -19
12 -37 -7 -9 -10 -18 -8 -21 9 -8 80 95 73 106 -3 5 -2 10 3 10 6 0 13 -7 16
-16 6 -15 8 -15 25 0 17 16 20 16 35 1 15 -15 17 -15 22 -1 8 20 26 21 22 2
-3 -15 61 -110 69 -102 3 3 0 12 -7 21 -15 18 -5 54 12 37 6 -6 17 -8 26 -4
11 4 14 1 10 -10 -4 -8 -2 -21 3 -29 7 -11 9 -11 9 3 0 9 3 23 6 32 4 11 -2
19 -20 26 -14 5 -26 14 -26 19 0 5 -10 13 -21 16 -15 5 -18 10 -9 15 7 4 0 7
-17 8 -15 0 -53 3 -83 6 -30 3 -66 1 -79 -4z"/>
<path d="M220 655 c-7 -8 -10 -21 -7 -29 7 -17 -19 -49 -47 -59 -16 -6 -17 -5
-7 7 7 8 10 20 6 26 -3 5 -1 10 5 10 6 0 8 5 4 12 -5 8 -12 5 -23 -9 -9 -11
-22 -18 -29 -15 -6 2 -15 -3 -18 -12 -3 -9 -14 -16 -23 -16 -12 -1 -10 -6 9
-22 16 -14 21 -22 13 -25 -7 -3 -13 -9 -13 -14 0 -6 4 -8 10 -4 5 3 21 3 35
-1 27 -7 66 -68 64 -101 0 -11 -5 -7 -12 12 -31 79 -63 99 -97 62 -20 -21 -27
-67 -11 -67 5 0 7 8 4 19 -3 10 0 22 7 26 7 4 11 1 9 -6 -4 -32 3 -50 31 -82
17 -19 30 -41 29 -48 0 -8 -4 -5 -9 6 -8 18 -9 18 -9 2 -1 -11 7 -31 18 -45
19 -28 32 -78 31 -123 0 -19 6 -28 22 -32 30 -8 48 9 48 47 0 24 -3 27 -10 16
-8 -12 -10 -9 -10 13 0 28 -14 37 -23 15 -3 -8 -6 -6 -6 5 -1 9 3 17 8 17 5 0
13 9 16 21 6 17 13 20 36 15 17 -3 29 -1 29 5 0 6 -5 7 -10 4 -6 -3 -13 0 -16
9 -3 8 -12 12 -20 9 -10 -4 -12 0 -8 11 4 11 1 16 -10 16 -9 0 -16 6 -16 14 0
18 36 10 44 -10 8 -21 36 -17 36 6 0 11 -6 20 -14 20 -7 0 -19 7 -26 15 -8 10
-9 15 -2 15 6 0 9 7 6 15 -4 9 3 16 20 21 25 6 57 34 39 34 -5 0 -13 -3 -17
-7 -17 -17 -44 -12 -50 10 -5 18 -8 19 -15 8 -5 -9 -6 -22 -1 -31 4 -8 6 -28
3 -44 -6 -28 -6 -27 -28 20 -14 29 -19 53 -14 58 13 14 -20 46 -39 39 -18 -7
20 32 57 57 23 16 27 40 9 58 -8 8 -8 15 2 27 7 8 10 15 7 15 -2 0 -10 -7 -17
-15z m-80 -115 c0 -5 -5 -10 -11 -10 -5 0 -7 5 -4 10 3 6 8 10 11 10 2 0 4 -4
4 -10z m27 -103 c21 -41 12 -42 -27 -2 -30 31 -31 34 -11 32 14 -1 29 -13 38
-30z m43 -91 c0 -3 -4 -8 -10 -11 -5 -3 -10 -1 -10 4 0 6 5 11 10 11 6 0 10
-2 10 -4z m20 -66 c0 -5 -4 -10 -10 -10 -5 0 -10 5 -10 10 0 6 5 10 10 10 6 0
10 -4 10 -10z m15 -129 c0 -23 -19 -23 -33 0 -12 19 -11 20 10 17 13 -2 23 -9
23 -17z"/>
<path d="M639 657 c11 -14 11 -21 3 -29 -18 -18 -14 -42 9 -58 59 -42 56 -36
31 -63 -15 -16 -20 -27 -13 -32 8 -4 8 -12 1 -25 -12 -23 -13 -30 -2 -30 5 0
15 16 22 36 15 36 51 60 77 50 7 -3 13 -1 13 4 0 6 -4 10 -10 10 -18 0 -11 18
10 25 11 3 20 13 20 20 0 8 -6 12 -14 9 -7 -3 -16 1 -19 9 -4 10 3 12 24 9 23
-3 29 -1 29 14 0 13 -3 15 -8 7 -4 -7 -16 -10 -27 -9 -11 2 -27 0 -37 -5 -11
-6 -18 -4 -22 6 -3 8 -10 15 -15 15 -13 0 -8 -25 9 -45 14 -16 13 -17 -10 -10
-30 10 -49 33 -50 61 0 12 -8 28 -17 35 -16 13 -17 12 -4 -4z m106 -117 c3 -5
1 -10 -4 -10 -6 0 -11 5 -11 10 0 6 2 10 4 10 3 0 8 -4 11 -10z"/>
<path d="M131 634 c0 -11 3 -14 6 -6 3 7 2 16 -1 19 -3 4 -6 -2 -5 -13z"/>
<path d="M364 617 c-26 -38 -39 -64 -31 -57 12 11 58 82 55 86 -2 1 -13 -12
-24 -29z"/>
<path d="M75 630 c3 -5 8 -10 11 -10 2 0 4 5 4 10 0 6 -5 10 -11 10 -5 0 -7
-4 -4 -10z"/>
<path d="M780 629 c0 -5 5 -7 10 -4 6 3 10 8 10 11 0 2 -4 4 -10 4 -5 0 -10
-5 -10 -11z"/>
<path d="M511 596 c12 -20 23 -36 25 -36 7 0 -25 58 -36 65 -5 3 -1 -10 11
-29z"/>
<path d="M50 608 c0 -13 8 -18 25 -18 14 0 25 5 25 11 0 6 -7 8 -17 5 -9 -4
-20 -1 -25 6 -6 10 -8 8 -8 -4z"/>
<path d="M385 563 c-10 -60 -24 -96 -49 -133 l-23 -34 28 -44 c15 -24 30 -57
33 -73 3 -16 9 -42 12 -59 4 -23 11 -30 30 -30 l24 0 0 205 0 205 -25 0 c-20
0 -25 -6 -30 -37z"/>
<path d="M270 560 c-9 -6 -10 -10 -3 -10 6 0 15 5 18 10 8 12 4 12 -15 0z"/>
<path d="M587 559 c7 -7 15 -10 18 -7 3 3 -2 9 -12 12 -14 6 -15 5 -6 -5z"/>
<path d="M289 534 c-23 -25 -23 -26 -2 -15 23 12 38 29 31 37 -3 2 -15 -8 -29
-22z"/>
<path d="M556 545 c4 -9 16 -21 28 -27 19 -10 19 -9 -3 16 -28 30 -33 32 -25
11z"/>
<path d="M210 520 c-13 -8 -13 -10 2 -10 9 0 20 5 23 10 8 13 -5 13 -25 0z"/>
<path d="M635 520 c3 -5 13 -10 21 -10 8 0 12 5 9 10 -3 6 -13 10 -21 10 -8 0
-12 -4 -9 -10z"/>
<path d="M275 490 c-3 -5 -1 -10 4 -10 6 0 11 5 11 10 0 6 -2 10 -4 10 -3 0
-8 -4 -11 -10z"/>
<path d="M580 490 c0 -5 5 -10 11 -10 5 0 7 5 4 10 -3 6 -8 10 -11 10 -2 0 -4
-4 -4 -10z"/>
<path d="M737 493 c-9 -2 -24 -17 -32 -33 -19 -36 -19 -54 -1 -21 7 14 24 26
37 28 22 3 21 1 -10 -31 -19 -20 -38 -33 -43 -30 -4 3 -8 -1 -8 -8 0 -9 -3 -9
-10 2 -7 12 -12 12 -21 3 -10 -10 -10 -18 -1 -38 16 -34 15 -36 -5 -33 -12 2
-18 -3 -16 -15 0 -12 -4 -16 -13 -13 -8 3 -14 1 -14 -4 0 -6 -5 -9 -11 -7 -6
1 -14 -4 -16 -10 -3 -9 4 -11 25 -7 25 5 31 2 37 -15 3 -12 11 -21 16 -21 5 0
9 -8 8 -17 0 -11 -3 -13 -6 -5 -9 23 -23 12 -23 -18 0 -16 -4 -30 -10 -30 -5
0 -10 -5 -10 -12 0 -9 3 -9 12 0 7 7 20 12 30 12 20 0 38 29 38 60 0 12 9 33
20 47 11 14 20 35 19 47 0 21 -1 21 -9 1 -5 -11 -9 -14 -9 -6 -1 7 13 29 29
48 29 32 35 49 30 83 -3 22 17 0 23 -25 4 -18 5 -18 6 3 1 23 -26 73 -38 71
-3 -1 -14 -3 -24 -6z m-77 -213 c0 -5 -5 -10 -11 -10 -5 0 -7 5 -4 10 3 6 8
10 11 10 2 0 4 -4 4 -10z"/>
<path d="M614 463 c-6 -23 -38 -31 -49 -13 -3 6 -11 10 -17 10 -18 0 11 -28
36 -34 40 -10 39 -66 -1 -66 -15 0 -18 -36 -3 -45 5 -3 15 3 22 15 7 11 18 20
25 20 9 0 11 10 6 33 -3 17 -7 34 -9 36 -2 2 1 10 7 17 7 9 7 18 0 31 -10 17
-11 16 -17 -4z"/>
<path d="M606 197 c3 -10 9 -15 12 -12 3 3 0 11 -7 18 -10 9 -11 8 -5 -6z"/>
<path d="M663 163 c-7 -2 -13 -12 -13 -20 0 -10 -6 -13 -17 -8 -12 4 -15 3 -8
-4 16 -16 55 -1 55 20 0 11 -1 19 -2 18 -2 0 -9 -3 -15 -6z"/>
</g>
</svg>
